# xmcd
#
# Track frame offsets: 
#        150
#        15924
#        34399
#        53102
#        75594
#        92114
#        108654
#        127608
#        144980
#        161740
#        192926
#        212269
#        230329
#        245862
#        265553
#        281096
#        295054
#        315404
#        331807
#
# Disc length: 4707 seconds
#
# Revision: 1
# Processed by: cddbd v1.5.2PL0 Copyright (c) Steve Scherf et al.
# Submitted via: ExactAudioCopy v1.0b3
#
DISCID=fd126113
DTITLE=Various Artist - Die Hit Giganten - Rockballaden [CD 2)
DYEAR=2006
DGENRE=Rock
TTITLE0=Scorpions - Maybe I Maybe You
TTITLE1=Deep Purple - Child in Time
TTITLE2=Billy Idol - Eyes Without a Face
TTITLE3=Journey - Who's Crying Now
TTITLE4=Selig - Knockin' on Heaven's Door
TTITLE5=Marillion - Lavender
TTITLE6=Oasis - Wonderwall
TTITLE7=Reamonn - Supergirl
TTITLE8=Nickelback - How You Remind Me
TTITLE9=Steve Harley and Cockney Rebel - Sebastian
TTITLE10=Bad English - When I See You Smile
TTITLE11=Firehouse - When I Look Into Your Eyes
TTITLE12=Mr. Big - To Be With You
TTITLE13=Soul Asylum - Runaway Train
TTITLE14=Skunk Anansie - Hedonism (Just Because You Feel Good)
TTITLE15=Faith No More - Easy
TTITLE16=Europe - Carrie
TTITLE17=HIM - Join Me in Death
TTITLE18=Whitesnake - Is This Love
EXTD=
EXTT0=
EXTT1=
EXTT2=
EXTT3=
EXTT4=
EXTT5=
EXTT6=
EXTT7=
EXTT8=
EXTT9=
EXTT10=
EXTT11=
EXTT12=
EXTT13=
EXTT14=
EXTT15=
EXTT16=
EXTT17=
EXTT18=
PLAYORDER=
